<svg width="55" height="55" viewBox="0 0 55 55" fill="none" xmlns="http://www.w3.org/2000/svg">
<g clip-path="url(#clip0)">
<path d="M47.2011 23.7105L49.4951 20.9528C50.5765 19.652 50.2403 17.5807 48.7448 16.3366C48.2446 15.9203 47.6761 15.6618 47.1016 15.533C47.5548 14.8612 47.7768 14.0685 47.7017 13.2503C47.6152 12.312 47.1687 11.4631 46.4441 10.8605C44.9502 9.61721 42.72 9.82073 41.4741 11.3162L40.5241 12.4589C40.3176 11.8957 39.979 11.3733 39.486 10.9629C38.7487 10.3494 37.8335 10.0918 36.946 10.1631C36.7563 9.1271 36.1143 8.20268 35.1689 7.68739C34.3419 7.23756 33.3877 7.13601 32.4834 7.40205C31.5795 7.66809 30.8334 8.27108 30.3824 9.09898L29.6715 10.4036C29.3597 9.89122 28.9263 9.44433 28.3623 9.13717C26.6549 8.20814 24.506 8.83924 23.5753 10.5492L19.8705 17.3516C18.5533 17.0583 17.1237 17.2752 15.9127 18.078C15.4859 18.36 15.1951 18.7926 15.0936 19.2944C14.9916 19.7963 15.0911 20.3074 15.3743 20.7341L16.8312 22.9334L16.702 23.17L13.8876 20.7253C11.8932 18.7108 8.63188 18.6944 6.61771 20.6888C6.25349 21.0484 6.05165 21.5293 6.04955 22.0417C6.04703 22.554 6.24384 23.0362 6.60387 23.3996L8.67804 25.4947C11.4484 28.2931 11.9452 29.1404 11.416 32.5569L10.7782 36.3469C10.5764 36.2428 10.3431 36.2172 10.1249 36.2818C9.89913 36.3481 9.70904 36.5013 9.59616 36.7082L5.26403 44.6629C5.15157 44.8697 5.12597 45.1123 5.19227 45.338C5.25857 45.5638 5.41215 45.7539 5.6186 45.8667L22.1914 54.8923C22.3232 54.9636 22.4688 55.0001 22.6156 55.0001C22.6996 55.0001 22.7843 54.988 22.8666 54.9636C23.0923 54.8973 23.282 54.7438 23.3949 54.5369L23.7146 53.9494L24.5581 54.6514C24.7242 54.7895 24.9248 54.8566 25.125 54.8566C25.3793 54.8566 25.6319 54.748 25.8073 54.5369L31.6001 47.5733C31.7507 47.3925 31.8233 47.1596 31.8015 46.925C31.7801 46.6909 31.6664 46.4748 31.486 46.3241L31.4066 46.2587L32.8824 44.4841C34.6704 44.5508 36.4076 43.788 37.57 42.3906L48.893 28.7791C50.0037 27.4434 49.8212 25.4523 48.4847 24.3403C48.0999 24.0198 47.6584 23.8192 47.2011 23.7105ZM31.9408 9.94745C32.4028 9.09773 33.4712 8.78133 34.3205 9.24543C34.884 9.55175 35.2247 10.151 35.226 10.7884C34.9692 10.9663 34.725 11.1673 34.516 11.4191L25.3251 22.4668L25.2059 22.3132L31.9408 9.94745ZM25.1338 11.3981C25.5966 10.5471 26.6645 10.2324 27.5143 10.6952C28.364 11.1589 28.6791 12.2268 28.2159 13.0765L28.1483 13.2012L24.018 20.7845L23.0386 19.5236C22.6295 18.9063 22.1071 18.409 21.5192 18.0343L25.1338 11.3981ZM9.93941 24.2468L7.86482 22.1512C7.8174 22.1038 7.81782 21.9972 7.86608 21.9502C8.50474 21.3174 9.32257 20.962 10.2516 20.9754C11.1513 20.98 11.9947 21.3346 12.6757 22.019L16.3713 25.2325C16.5744 25.4091 16.8463 25.4825 17.1107 25.436C17.3755 25.3881 17.6042 25.2232 17.7321 24.9874L17.9226 24.6379C19.2386 26.8383 19.3061 27.9369 18.3192 30.6506L16.9588 34.245C16.5824 33.9483 16.0381 33.9995 15.7297 34.3701L13.0572 37.5826L12.4273 37.2398L13.1675 32.8397C13.7932 28.8034 13.0416 27.3805 9.93941 24.2468ZM22.2615 52.9096L7.24672 44.7325L10.7035 38.3854C10.7803 38.4945 10.8735 38.5927 10.9956 38.6594L11.7979 39.0966L9.93647 41.334C9.78583 41.5149 9.71366 41.7482 9.73506 41.9823C9.75646 42.2169 9.87017 42.433 10.051 42.5832L22.3249 52.7934L22.2615 52.9096ZM25.0112 52.7204L11.8676 41.7864L16.4901 36.2306C16.5442 36.3523 16.6164 36.4669 16.7234 36.5558L29.4902 47.1759C29.5175 47.1986 29.5515 47.2087 29.5809 47.228L25.0112 52.7204ZM47.5292 27.6444L36.2066 41.2556C35.3246 42.3164 33.9726 42.848 32.6005 42.6839C32.2983 42.6453 32.0042 42.7662 31.812 42.997L30.0433 45.1236L18.4027 35.4405L19.9821 31.2674C21.3786 27.4292 20.9175 25.8879 18.4807 22.2116L16.853 19.7539C16.8157 19.6977 16.8367 19.5932 16.8929 19.5559C17.6423 19.0586 18.5412 18.8836 19.4224 19.0632C20.304 19.242 21.0626 19.7531 21.5981 20.5571L23.4532 22.9468C23.4549 22.9489 23.4561 22.9506 23.4574 22.9527L24.6009 24.4259C24.7658 24.6383 25.018 24.7642 25.2865 24.7692C25.5421 24.7499 25.8115 24.6555 25.9835 24.4494L35.8798 12.5533C36.1794 12.1932 36.6011 11.9708 37.0681 11.928C37.5394 11.884 37.9909 12.0271 38.3509 12.3263C39.0936 12.9444 39.1956 14.0522 38.5792 14.7957L38.5775 14.7974C38.5775 14.7978 38.5775 14.7982 38.5771 14.7987L33.5089 20.8911C33.1955 21.2679 33.2467 21.8268 33.6231 22.1403C33.9995 22.4542 34.5584 22.4034 34.8723 22.0257L39.9412 15.9329C39.9429 15.9312 39.9433 15.9291 39.9446 15.9274L42.837 12.4505C43.456 11.7061 44.5654 11.6045 45.3086 12.2239C45.669 12.5239 45.8914 12.9456 45.9342 13.4122C45.977 13.8789 45.8352 14.3341 45.5356 14.6946L44.1496 16.3609C44.124 16.389 44.0925 16.4091 44.0678 16.4389C44.0531 16.4566 44.0497 16.4784 44.0363 16.4968L35.6397 26.5912C35.3263 26.968 35.3775 27.5269 35.7543 27.8404C35.9201 27.9784 36.121 28.0456 36.3212 28.0456C36.5751 28.0456 36.8277 27.9369 37.0031 27.7258L45.4978 17.5136C45.9707 17.0453 46.9098 17.1175 47.6093 17.6999C48.3403 18.3083 48.5791 19.2785 48.1305 19.8181L41.8618 27.3536L41.8039 27.4229C41.8035 27.4233 41.8035 27.4237 41.8027 27.4241L39.8712 29.7467C39.5577 30.1235 39.6089 30.6824 39.9857 30.9955C40.1515 31.1335 40.3525 31.2011 40.5526 31.2011C40.8065 31.2011 41.0591 31.0924 41.2345 30.8813L43.1627 28.5638C43.1627 28.5634 43.1635 28.5634 43.1639 28.563L45.4101 25.8824C45.8965 25.2988 46.7651 25.2178 47.35 25.7037C47.9346 26.19 48.0147 27.0607 47.5292 27.6444Z" fill="#CBCBCB"/>
<path d="M16.8589 39.8125C16.0285 39.8889 15.4171 40.624 15.4935 41.4541C15.5698 42.2845 16.3042 42.8959 17.1346 42.8195C17.9654 42.7431 18.5764 42.0084 18.5 41.1779C18.4237 40.3475 17.6889 39.7361 16.8589 39.8125Z" fill="#CBCBCB"/>
<path d="M15.1435 8.39697L20.5402 10.1673C20.6321 10.1975 20.7253 10.2118 20.8167 10.2118C21.1894 10.2118 21.5368 9.97473 21.6593 9.60085C21.8121 9.1355 21.5586 8.63447 21.0928 8.48173L15.6961 6.71095C15.2299 6.55905 14.7302 6.8125 14.577 7.27743C14.4239 7.74279 14.6781 8.24423 15.1435 8.39697Z" fill="#CBCBCB"/>
<path d="M21.3303 6.86872C21.5007 7.12888 21.7843 7.2703 22.0739 7.2703C22.24 7.2703 22.4087 7.22372 22.5585 7.12595C22.9681 6.85781 23.0835 6.30811 22.8153 5.89814L20.3883 2.1862C20.1206 1.77708 19.5713 1.66084 19.1605 1.9294C18.7509 2.19753 18.6355 2.74723 18.9037 3.1572L21.3303 6.86872Z" fill="#CBCBCB"/>
<path d="M25.0893 7.28037C25.151 7.29295 25.2118 7.29925 25.2718 7.29925C25.683 7.29925 26.0515 7.01181 26.1396 6.59387L27.2961 1.06876C27.3959 0.58872 27.0888 0.118748 26.6096 0.018459C26.1266 -0.0797316 25.6595 0.225331 25.5593 0.704954L24.4028 6.23006C24.3025 6.71011 24.6097 7.18008 25.0893 7.28037Z" fill="#CBCBCB"/>
</g>
<defs>
<clipPath id="clip0">
<rect width="55" height="55" fill="white"/>
</clipPath>
</defs>
</svg>
