<svg width="55" height="55" viewBox="0 0 55 55" fill="none" xmlns="http://www.w3.org/2000/svg">
<path d="M45.3402 44.4464L38.8511 14.3086C38.6158 13.2399 38.0902 12.2568 37.332 11.4678C36.5739 10.6787 35.6126 10.1142 34.5542 9.83641V9.09648C34.5542 7.22526 33.8108 5.43067 32.4877 4.10751C31.1645 2.78436 29.3699 2.04102 27.4987 2.04102C25.6275 2.04102 23.8329 2.78436 22.5097 4.10751C21.1866 5.43067 20.4432 7.22526 20.4432 9.09648V9.83555C19.3848 10.1133 18.4235 10.6778 17.6654 11.4669C16.9072 12.256 16.3816 13.239 16.1464 14.3077L9.65809 44.4464C9.63459 44.5561 9.6359 44.6697 9.66193 44.7788C9.68795 44.8879 9.73802 44.9898 9.80849 45.0771C9.87896 45.1643 9.96804 45.2348 10.0692 45.2832C10.1704 45.3316 10.2811 45.3568 10.3933 45.357H21.9141V47.373C21.9141 48.8545 22.5026 50.2753 23.5501 51.3229C24.5977 52.3705 26.0185 52.959 27.5 52.959C28.9815 52.959 30.4023 52.3705 31.4499 51.3229C32.4974 50.2753 33.0859 48.8545 33.0859 47.373V45.357H44.605C44.7172 45.3568 44.8279 45.3316 44.9291 45.2832C45.0302 45.2348 45.1193 45.1643 45.1898 45.0771C45.2603 44.9898 45.3103 44.8879 45.3364 44.7788C45.3624 44.6697 45.3637 44.5561 45.3402 44.4464ZM27.5 3.54492C28.9718 3.54663 30.3829 4.13207 31.4237 5.17282C32.4644 6.21357 33.0499 7.62464 33.0516 9.09648V9.64305H31.9773V9.09648C31.9773 7.90902 31.5056 6.77019 30.666 5.93052C29.8263 5.09086 28.6875 4.61914 27.5 4.61914C26.3125 4.61914 25.1737 5.09086 24.334 5.93052C23.4944 6.77019 23.0227 7.90902 23.0227 9.09648V9.64305H21.9484V9.09648C21.9501 7.62464 22.5356 6.21357 23.5763 5.17282C24.6171 4.13207 26.0282 3.54663 27.5 3.54492ZM30.4734 9.64305H24.5266V9.09648C24.5266 8.30788 24.8398 7.55157 25.3975 6.99395C25.9551 6.43632 26.7114 6.12305 27.5 6.12305C28.2886 6.12305 29.0449 6.43632 29.6025 6.99395C30.1602 7.55157 30.4734 8.30788 30.4734 9.09648V9.64305ZM31.582 47.373C31.582 48.4557 31.152 49.4939 30.3864 50.2595C29.6209 51.025 28.5826 51.4551 27.5 51.4551C26.4174 51.4551 25.3791 51.025 24.6136 50.2595C23.848 49.4939 23.418 48.4557 23.418 47.373V45.357H31.582V47.373ZM11.3261 43.853L17.6193 14.6244C17.8349 13.6418 18.3787 12.7619 19.1613 12.1298C19.9439 11.4977 20.9184 11.151 21.9244 11.147H33.0756C34.082 11.1505 35.057 11.497 35.84 12.1292C36.623 12.7613 37.1672 13.6414 37.3828 14.6244L43.676 43.853H11.3261Z" fill="#CBCBCB"/>
<path d="M36.7972 20.5876C36.7006 20.6084 36.6091 20.6479 36.5278 20.7041C36.4466 20.7602 36.3772 20.8318 36.3236 20.9147C36.27 20.9977 36.2333 21.0904 36.2155 21.1875C36.1978 21.2847 36.1993 21.3844 36.2201 21.4809L37.6742 28.236C37.7099 28.4044 37.8023 28.5555 37.9359 28.6639C38.0696 28.7724 38.2364 28.8317 38.4085 28.832C38.4619 28.8319 38.5152 28.8263 38.5675 28.8153C38.6642 28.7945 38.7559 28.7548 38.8373 28.6985C38.9187 28.6422 38.9882 28.5704 39.0418 28.4872C39.0954 28.4041 39.1321 28.3111 39.1497 28.2138C39.1673 28.1164 39.1656 28.0165 39.1445 27.9198L37.6905 21.1647C37.6482 20.9699 37.5304 20.7999 37.363 20.6917C37.1956 20.5836 36.9921 20.5461 36.7972 20.5876Z" fill="#CBCBCB"/>
</svg>
