<svg width="55" height="55" viewBox="0 0 55 55" fill="none" xmlns="http://www.w3.org/2000/svg">
<path d="M52.3283 9.32542C52.3283 7.41154 49.7426 5.86646 44.6428 4.73323C40.2545 3.75801 34.4942 3.20231 28.3436 3.15563V0.843512C28.3436 0.377668 27.9659 0 27.5001 0C27.0342 0 26.6565 0.377668 26.6565 0.843512V3.15552C20.5059 3.2022 14.7456 3.7579 10.3573 4.73311C5.25745 5.86646 2.67169 7.41154 2.67169 9.32542C2.67169 9.91317 2.91665 10.4661 3.4024 10.9831C2.91788 11.5006 2.6718 12.0582 2.67169 12.6487C2.67169 14.5626 5.25745 16.1077 10.3572 17.2409C14.6167 18.1875 20.1689 18.7389 26.1161 18.8131V45.2983L17.2191 52.6757C17.0468 52.8186 16.9384 53.024 16.9176 53.2468C16.8968 53.4696 16.9655 53.6917 17.1084 53.8637L17.7987 54.6952C17.9655 54.8962 18.2059 55.0001 18.4482 55C18.6379 55 18.8288 54.9363 18.9861 54.8058L26.1161 48.8938V53.6846C26.1161 54.1504 26.4938 54.5281 26.9597 54.5281H28.0404C28.5062 54.5281 28.8839 54.1504 28.8839 53.6846V48.8938L36.0139 54.8058C36.1714 54.9363 36.3621 55 36.5518 55C36.7941 55 37.0344 54.8962 37.2013 54.6952L37.8916 53.8637C38.0345 53.6915 38.1031 53.4696 38.0824 53.2468C38.0616 53.024 37.9532 52.8186 37.7809 52.6757L28.8839 45.2982V18.813C34.8308 18.7388 40.3832 18.1873 44.6428 17.2408C49.7426 16.1076 52.3283 14.5625 52.3283 12.6486C52.3283 12.0581 52.0822 11.5003 51.5976 10.9829C52.0834 10.466 52.3283 9.91317 52.3283 9.32542ZM27.5001 8.47561C27.9659 8.47561 28.3436 8.09794 28.3436 7.63209V7.11148C31.6102 7.18649 33.73 7.68563 34.5263 8.06442C33.6634 8.47482 31.2472 9.02726 27.5001 9.02726C23.753 9.02726 21.3368 8.47482 20.4738 8.06431C21.2701 7.68552 23.3899 7.18627 26.6565 7.11137V7.63198C26.6565 8.09805 27.0342 8.47561 27.5001 8.47561ZM44.2768 15.5941C39.805 16.5878 33.8469 17.1351 27.5001 17.135C21.1533 17.135 15.195 16.5877 10.7232 15.5939C5.68888 14.4752 4.35872 13.1782 4.35872 12.6487C4.35872 12.4704 4.50346 12.2452 4.76394 12.0072C6.0454 12.7356 7.91136 13.374 10.3572 13.9175C14.9456 14.9371 21.0337 15.4987 27.5005 15.4987H27.501C33.9668 15.4987 40.0546 14.9371 44.6428 13.9175C47.089 13.3739 48.9551 12.7353 50.2364 12.007C50.497 12.2451 50.6413 12.4705 50.6413 12.6486C50.6413 13.1782 49.3111 14.4753 44.2768 15.5941ZM44.2769 12.2707C39.8051 13.2645 33.8473 13.8118 27.501 13.8118H27.5001C21.1531 13.8118 15.195 13.2645 10.7232 12.2707C5.68888 11.152 4.35872 9.85492 4.35872 9.32542C4.35872 8.7958 5.68888 7.49882 10.7232 6.37999C14.9963 5.43042 20.6268 4.88888 26.6564 4.84266V5.42401C24.7421 5.46674 22.9604 5.65457 21.5692 5.96374C20.2636 6.25391 18.5278 6.78735 18.5278 8.06442C18.5278 9.34161 20.2635 9.87505 21.5692 10.1652C23.1627 10.5194 25.269 10.7144 27.4999 10.7144C29.7309 10.7144 31.8371 10.5194 33.4307 10.1652C34.7363 9.87505 36.4721 9.34161 36.4721 8.06453C36.4721 6.78746 34.7364 6.25391 33.4307 5.96385C32.0396 5.65468 30.2578 5.46686 28.3435 5.42412V4.84277C34.3731 4.88911 40.0036 5.43064 44.2767 6.3801C49.311 7.49882 50.6412 8.79591 50.6412 9.32553C50.6413 9.85492 49.3111 11.1519 44.2769 12.2707Z" fill="#CBCBCB"/>
</svg>
