<svg width="55" height="55" viewBox="0 0 55 55" fill="none" xmlns="http://www.w3.org/2000/svg">
<g clip-path="url(#clip0)">
<path d="M49.6868 43.7473C53.1248 39.0533 55 33.3569 55 27.5C55 21.5073 53.0955 15.8076 49.5739 11.091C49.95 10.895 50.2984 10.6412 50.6069 10.3327C52.2436 8.69526 52.2437 6.03077 50.6064 4.39259C49.813 3.59949 48.7583 3.16271 47.6364 3.16271C46.5146 3.16271 45.4598 3.59949 44.6658 4.39313C44.3543 4.70486 44.1024 5.05409 43.9093 5.4262C39.1926 1.90448 33.4929 -0.000214826 27.5002 1.81733e-08C27.4998 1.81733e-08 27.4998 1.81733e-08 27.4994 1.81733e-08C21.5068 1.81733e-08 15.8071 1.9047 11.0906 5.42652C10.8974 5.0542 10.6454 4.70476 10.3334 4.39269C9.54003 3.5996 8.48536 3.16282 7.36355 3.16282C6.24175 3.16282 5.18697 3.5996 4.39302 4.39323C2.75612 6.03088 2.75623 8.69548 4.39345 10.3331C4.70196 10.6415 5.05022 10.8952 5.4262 11.0912C1.9047 15.8077 0.000214844 21.5074 0 27.5C0.000214844 33.3569 1.87526 39.0533 5.31309 43.7472L1.2303 47.8299C-0.407451 49.4678 -0.407344 52.1326 1.2303 53.77C2.04907 54.5888 3.12437 54.9982 4.19998 54.9982C5.2756 54.9981 6.35132 54.5887 7.1702 53.7699L11.2538 49.6859C14.5466 52.0984 18.3521 53.7648 22.3893 54.5244C22.8594 54.8322 23.4306 55.0001 24.048 55.0001H30.9516C31.5688 55.0001 32.1402 54.8323 32.6102 54.5246C36.6474 53.7648 40.4529 52.0985 43.7457 49.6861L47.8295 53.7699C48.6484 54.5888 49.7239 54.9982 50.7995 54.9982C51.8749 54.9982 52.9505 54.5888 53.7693 53.7701C55.4068 52.1326 55.4068 49.4679 53.7693 47.83L49.6868 43.7473ZM46.9446 6.67176C47.1294 6.4871 47.3751 6.38537 47.6363 6.38537C47.8977 6.38537 48.1434 6.4871 48.3275 6.67122C48.7087 7.05268 48.7088 7.67314 48.328 8.05406C48.1433 8.23883 47.8976 8.34045 47.6364 8.34045C47.3769 8.34045 47.1329 8.2398 46.9488 8.05761C46.9477 8.05653 46.9466 8.05535 46.9455 8.05428C46.9443 8.0531 46.9433 8.05202 46.9421 8.05095C46.5642 7.66949 46.5652 7.0516 46.9446 6.67176ZM6.67187 6.67176C6.85663 6.4871 7.1023 6.38537 7.36355 6.38537C7.6248 6.38537 7.87037 6.48699 8.05471 6.67133C8.43595 7.05268 8.43595 7.67304 8.05503 8.05406C7.87026 8.23883 7.6248 8.34045 7.36355 8.34045C7.1023 8.34045 6.85674 8.23883 6.67229 8.05438C6.29116 7.67314 6.29116 7.05268 6.67187 6.67176ZM10.3329 10.3336C10.3332 10.3333 10.3334 10.3331 10.3338 10.3328C10.334 10.3326 10.3342 10.3324 10.3344 10.3322C14.9196 5.74728 21.0158 3.22244 27.5002 3.22266C33.9828 3.22244 40.0774 5.7461 44.6624 10.3288C44.6638 10.3302 44.6649 10.3316 44.6663 10.333C44.6678 10.3345 44.6693 10.3358 44.6707 10.3372C49.2536 14.9222 51.7773 21.0171 51.7773 27.5C51.7773 33.2125 49.8112 38.5082 46.4694 42.6874C46.4483 42.7065 44.8102 44.6655 42.68 46.477C40.0598 48.5719 36.9797 50.1392 33.5832 51.0096L33.026 49.3388C33.0044 49.2739 32.9802 49.2102 32.9549 49.1467C42.6351 46.7063 49.8223 37.9271 49.8223 27.4997C49.8223 15.1911 39.8085 5.1773 27.5 5.1773C15.1915 5.1773 5.17763 15.1912 5.17763 27.4998C5.17763 37.927 12.3646 46.7063 22.0448 49.1468C22.0196 49.2102 21.9954 49.2739 21.9738 49.3385L21.4166 51.0097C18.0201 50.1393 14.2026 48.114 11.9207 46.151C10.8028 45.2175 9.77335 44.1859 8.84361 43.0708C5.14862 39.3341 3.22287 33.2127 3.22266 27.5C3.22287 21.0155 5.74804 14.919 10.3329 10.3336ZM26.637 39.6957C26.5781 39.6957 26.5225 39.6401 26.5225 39.5813V36.1293C26.5225 36.0703 26.5781 36.0146 26.637 36.0146H28.3629C28.4218 36.0146 28.4774 36.0704 28.4774 36.1293V39.5813C28.4774 39.6401 28.4218 39.6957 28.3629 39.6957H26.637ZM29.1113 46.5309V42.8328C30.5921 42.4919 31.7002 41.1641 31.7002 39.5813V36.1293C31.7002 34.2891 30.2032 32.7919 28.363 32.7919H26.6371C24.7969 32.7919 23.2999 34.2892 23.2999 36.1293V39.5813C23.2999 41.164 24.408 42.492 25.8889 42.8328V46.5309C16.1087 45.7098 8.4005 37.4886 8.4005 27.4998C8.4005 16.9681 16.9686 8.40007 27.5002 8.40007C38.0319 8.40007 46.5998 16.9681 46.5998 27.4998C46.5997 37.4886 38.8917 45.7099 29.1113 46.5309ZM25.0311 50.3577C25.1112 50.1175 25.5209 49.8222 25.7741 49.8222H29.2258C29.479 49.8222 29.8887 50.1174 29.9688 50.3578L30.4421 51.7773H24.5577L25.0311 50.3577ZM4.89167 51.491C4.51043 51.8723 3.89018 51.8723 3.50915 51.4912C3.12802 51.11 3.12812 50.4899 3.50915 50.1087L7.37623 46.2417C7.8216 46.7196 8.28352 47.1796 8.75961 47.6228L4.89167 51.491ZM51.491 51.4912C51.1097 51.8722 50.4897 51.8723 50.1084 51.4911L46.2404 47.6229C46.7165 47.1797 47.1784 46.7197 47.6239 46.2418L51.4907 50.1085C51.872 50.4899 51.872 51.1101 51.491 51.4912Z" fill="#CBCBCB"/>
</g>
<defs>
<clipPath id="clip0">
<rect width="55" height="55" fill="white"/>
</clipPath>
</defs>
</svg>
