<svg width="55" height="55" viewBox="0 0 55 55" fill="none" xmlns="http://www.w3.org/2000/svg">
<path d="M51.8741 28.6473C53.8002 27.7349 55 26.6055 55 25.2084C55 20.6888 42.7225 19.1593 36.4634 18.6722C35.4868 16.6373 30.8894 16.1723 28.6458 16.0708V8.02087C28.6459 7.38751 28.1334 6.875 27.5 6.875C26.8666 6.875 26.3541 7.38751 26.3541 8.02087V16.0708C24.1106 16.1723 19.5131 16.6373 18.5365 18.6722C12.2775 19.1592 0 20.6888 0 25.2084C0 26.6055 1.20001 27.7349 3.12598 28.6473C1.0421 29.6223 0 30.755 0 32.0834C0 37.3141 16.6206 38.8386 26.3541 38.9477V46.9792C26.3541 47.6126 26.8666 48.1251 27.5 48.1251C28.1334 48.1251 28.6459 47.6126 28.6459 46.9792V38.9477C38.3794 38.8386 55 37.314 55 32.0834C55 30.755 53.9581 29.6223 51.8741 28.6473ZM27.5 18.3334C31.0941 18.3334 33.4059 19.0025 34.1781 19.4792C33.4059 19.9559 31.0941 20.625 27.5 20.625C23.9059 20.625 21.5941 19.9559 20.8219 19.4791C21.5941 19.0025 23.9059 18.3334 27.5 18.3334ZM2.29163 25.2084C2.29163 24.1693 7.35947 21.8085 19.0095 20.9388C20.9858 22.8456 26.7254 22.9167 27.5 22.9167C28.2746 22.9167 34.0142 22.8457 35.9905 20.9388C47.6405 21.8085 52.7084 24.1693 52.7084 25.2084C52.7084 26.7637 43.8103 29.7917 27.5 29.7917C11.1897 29.7917 2.29163 26.7637 2.29163 25.2084ZM27.5 36.6666C11.1898 36.6666 2.29163 33.6386 2.29163 32.0833C2.29163 31.8207 3.08913 30.8624 6.46572 29.843C12.5721 31.5338 21.6397 32.0833 27.5 32.0833C33.3603 32.0833 42.4279 31.5337 48.5343 29.843C51.9108 30.8625 52.7084 31.8207 52.7084 32.0833C52.7084 33.6387 43.8102 36.6666 27.5 36.6666Z" fill="#CBCBCB"/>
</svg>
