<svg width="38" height="38" viewBox="0 0 38 38" fill="none" xmlns="http://www.w3.org/2000/svg">
<path d="M20.4609 11.6719V24.3281C20.4609 25.1048 21.0905 25.7344 21.8672 25.7344C22.6439 25.7344 23.2734 25.1048 23.2734 24.3281V11.6719C23.2734 10.8952 22.6439 10.2656 21.8672 10.2656C21.0905 10.2656 20.4609 10.8952 20.4609 11.6719Z" fill="#C8C8C8"/>
<path d="M30.728 5.27203C27.3281 1.87235 22.808 0 18 0C13.192 0 8.67185 1.87235 5.27203 5.27203C1.87235 8.67185 0 13.192 0 18C0 22.808 1.87235 27.3281 5.27203 30.728C8.67185 34.1276 13.192 36 18 36C21.2915 36 24.5121 35.103 27.3137 33.406C27.978 33.0036 28.1903 32.1389 27.7879 31.4746C27.3855 30.8102 26.5207 30.598 25.8565 31.0004C23.4944 32.4312 20.7776 33.1875 18 33.1875C9.62557 33.1875 2.8125 26.3744 2.8125 18C2.8125 9.62557 9.62557 2.8125 18 2.8125C26.3744 2.8125 33.1875 9.62557 33.1875 18C33.1875 20.9945 32.297 23.9093 30.6122 26.4294C30.1805 27.0751 30.354 27.9484 30.9997 28.38C31.6454 28.8118 32.5187 28.6382 32.9503 27.9925C34.9455 25.0083 36 21.553 36 18C36 13.192 34.1276 8.67185 30.728 5.27203Z" fill="#C8C8C8"/>
<path d="M12.7266 11.6719V24.3281C12.7266 25.1048 13.3561 25.7344 14.1328 25.7344C14.9095 25.7344 15.5391 25.1048 15.5391 24.3281V11.6719C15.5391 10.8952 14.9095 10.2656 14.1328 10.2656C13.3561 10.2656 12.7266 10.8952 12.7266 11.6719Z" fill="#C8C8C8"/>
</svg>
