<svg width="40" height="40" viewBox="0 0 40 40" fill="none" xmlns="http://www.w3.org/2000/svg">
<g clip-path="url(#clip0)">
<path d="M34.6766 15.3841L11.0516 0.821154C9.34236 -0.231113 7.27587 -0.274863 5.5236 0.704123C3.77133 1.68295 2.72523 3.46585 2.72523 5.47296V34.4661C2.72523 37.501 5.17055 39.9833 8.17603 39.9997C8.18423 39.9997 8.19244 39.9997 8.20048 39.9997C9.1397 39.9997 10.1185 39.7053 11.0326 39.1475C11.768 38.6988 12.0004 37.739 11.5517 37.0036C11.1031 36.2682 10.1431 36.0358 9.40791 36.4845C8.98033 36.7453 8.56275 36.8802 8.19283 36.8801C7.05884 36.874 5.84469 35.9026 5.84469 34.4662V5.47304C5.84469 4.61202 6.29345 3.84741 7.04501 3.42749C7.79665 3.00757 8.68298 3.02632 9.41525 3.47718L33.0404 18.0401C33.7505 18.4773 34.1568 19.2063 34.1551 20.0402C34.1534 20.874 33.7441 21.6014 33.0301 22.0371L15.949 32.4955C15.2143 32.9454 14.9834 33.9056 15.4332 34.6402C15.883 35.3749 16.8432 35.6058 17.5779 35.156L34.6569 24.6988C36.2922 23.7012 37.2708 21.9621 37.2747 20.0464C37.2786 18.131 36.307 16.3878 34.6766 15.3841Z" fill="#C8C8C8"/>
</g>
<defs>
<clipPath id="clip0">
<rect width="40" height="40" fill="white"/>
</clipPath>
</defs>
</svg>
