<svg width="55" height="55" viewBox="0 0 55 55" fill="none" xmlns="http://www.w3.org/2000/svg">
<g clip-path="url(#clip0)">
<path d="M51.8531 14.989C53.8589 11.802 53.7439 7.38449 51.1997 4.52496C49.6406 2.77137 47.6194 1.38535 45.5088 0.622349C41.161 -0.951653 36.4227 0.664314 34.2185 4.80548L30.3512 12.0673C28.8335 14.8511 29.1851 18.1993 31.2124 20.614C29.9989 23.3499 28.7675 26.0709 27.4975 28.7812C26.231 26.0719 25.0019 23.3522 23.7892 20.6185C25.9239 18.2904 26.1058 14.8018 24.6532 12.0771L21.213 5.61691C20.5894 4.52561 20.0253 3.4695 19.1121 2.57059C18.3683 1.83868 17.2363 2.98895 17.98 3.72085C18.5624 4.29427 19.0494 4.95978 19.4208 5.68782L4.58686 14.2516C3.18545 12.1465 2.92742 9.26365 4.068 6.99045C5.84763 3.44249 11.0882 0.680238 14.9919 1.90948C15.9872 2.22282 16.4718 0.683466 15.4767 0.369914C10.8124 -1.09907 4.77043 1.99094 2.62549 6.26672C1.00081 9.50468 1.83203 12.8457 3.63049 15.7681L7.50503 21.9776C9.14359 24.6812 12.2364 26.0471 15.3341 25.4998C18.1019 29.2983 20.8319 33.1182 23.4531 37.0209C22.1877 39.3893 20.9562 41.4374 19.6961 43.269C19.0535 44.2072 20.2494 45.2711 21.0256 44.1839C22.1823 42.5029 23.3129 40.6481 24.4635 38.5452C25.1858 39.6522 25.8894 40.7733 26.564 41.9098C25.7806 43.2759 21.5134 52.0669 21.5134 52.0669C20.048 55.117 15.3492 52.4397 17.2839 49.6229L18.8277 47.379C19.419 46.5192 18.0894 45.6046 17.498 46.4641L15.9538 48.7086C12.7618 53.3561 20.5408 57.8186 22.9689 52.7643C22.9689 52.7643 26.9266 44.5691 27.5001 43.5352C28.0992 44.6081 32.0351 52.7609 32.0351 52.7609C34.4885 57.9009 42.387 53.1562 39.055 48.7135C39.055 48.7135 32.653 39.0879 31.5423 37.0149C34.1639 33.1135 36.8991 29.295 39.6665 25.497C42.6843 26.1675 45.9882 24.6225 47.5133 21.9444L51.8531 14.989ZM41.6087 1.60336C42.7479 1.53632 43.8908 1.75314 44.9598 2.14007C46.7952 2.80366 48.63 4.06367 49.9937 5.59754C52.0801 7.94251 52.1269 11.682 50.4132 14.2477L35.5797 5.68319C36.7021 3.41699 39.0697 1.75217 41.6087 1.60336ZM46.5388 20.4573L44.6617 19.3735L48.438 17.4133L46.5388 20.4573ZM34.0173 13.228L32.1391 12.1436L33.8267 8.97463L34.0173 13.228ZM35.3732 7.42763L40.9144 10.6269L35.6392 13.3654L35.3732 7.42763ZM41.8442 11.9627L41.8772 12.7003C41.9239 13.7423 43.5363 13.6707 43.4895 12.628L43.4658 12.1004L49.0068 15.2994L43.732 18.0374L43.6585 16.4005C43.6121 15.3589 41.9994 15.43 42.0462 16.4728L42.1103 17.9004L36.569 14.7012L41.8442 11.9627ZM32.8864 22.2183C34.5996 23.5679 36.5857 24.4575 38.0403 24.9881L35.6938 28.2084L30.8499 25.4117L32.4332 21.8424C32.5796 21.9691 32.7294 22.0946 32.8864 22.2183ZM8.4615 20.4616L6.56093 17.4156L10.3397 19.3772L8.4615 20.4616ZM19.6284 7.43162L19.3621 13.3687L14.0874 10.6307L19.6284 7.43162ZM11.5355 12.1041L11.2696 18.0414L5.99483 15.3031L11.5355 12.1041ZM13.1574 11.9664L18.4327 14.7046L12.8913 17.904L13.1574 11.9664ZM21.1746 8.98108L22.8611 12.1478L20.984 13.2316L21.1746 8.98108ZM11.7774 23.6261C10.8455 23.2449 10.0094 22.6126 9.35815 21.8076L23.5803 13.5963C24.4283 15.7819 23.9787 18.2096 22.38 19.7526C22.2995 19.8052 22.2306 19.8702 22.1752 19.9444C21.151 20.8802 19.2247 22.4488 16.9613 23.3527C15.3322 24.0035 13.4509 24.3117 11.7774 23.6261ZM17.5602 24.8516C19.5858 24.0426 21.3491 22.7675 22.5358 21.773L24.1515 25.4153L19.3075 28.212L17.0088 25.0571C17.1912 24.9938 17.3749 24.9257 17.5602 24.8516ZM37.7235 49.6257C39.627 52.4133 34.9696 55.1622 33.4919 52.0662C33.4919 52.0662 29.0922 43.033 28.2237 41.5463C26.1372 37.2972 22.9298 33.4151 20.244 29.5355L24.8285 26.8887C26.4692 30.3705 27.9073 34.0969 29.9118 37.3886C31.1045 39.6405 37.7235 49.6257 37.7235 49.6257ZM30.6917 35.3896C29.8928 33.8291 29.1316 32.2522 28.389 30.6798C28.9842 29.4151 29.5745 28.1482 30.172 26.8847L34.7565 29.5316C34.3104 30.174 31.5961 34.0586 30.6917 35.3896ZM39.7162 23.8441C39.628 23.799 39.5344 23.7711 39.4396 23.7605C38.116 23.3406 35.7966 22.4562 33.8851 20.9505C31.6116 19.1597 30.3213 16.4557 31.4217 13.5932L45.6439 21.8043C44.176 23.6302 41.8509 24.4548 39.7162 23.8441Z" fill="#C8C8C8"/>
<path d="M38.456 6.04023C38.842 6.26308 39.3355 6.13084 39.5584 5.74487C39.7812 5.3589 39.649 4.86533 39.263 4.64248C38.877 4.41964 38.3835 4.55188 38.1606 4.93785C37.9378 5.32382 38.07 5.81739 38.456 6.04023Z" fill="#C8C8C8"/>
<path d="M41.8224 7.98375C42.2084 8.20659 42.702 8.07435 42.9248 7.68838C43.1476 7.30241 43.0154 6.80884 42.6294 6.586C42.2435 6.36315 41.7499 6.4954 41.527 6.88136C41.3042 7.26733 41.4364 7.76091 41.8224 7.98375Z" fill="#C8C8C8"/>
<path d="M45.1887 9.92736C45.5747 10.1502 46.0683 10.018 46.2911 9.63199C46.514 9.24602 46.3817 8.75245 45.9958 8.52961C45.6098 8.30676 45.1162 8.43901 44.8934 8.82498C44.6705 9.21094 44.8028 9.70451 45.1887 9.92736Z" fill="#C8C8C8"/>
<path d="M34.5635 16.8001C34.1775 16.5773 33.6839 16.7095 33.4611 17.0955C33.2383 17.4815 33.3705 17.975 33.7565 18.1979C34.1424 18.4207 34.636 18.2885 34.8588 17.9025C35.0817 17.5165 34.9494 17.023 34.5635 16.8001Z" fill="#C8C8C8"/>
<path d="M38.3094 19.5893C38.4007 19.153 38.1211 18.7252 37.6847 18.6338C37.2484 18.5425 36.8206 18.8221 36.7292 19.2585C36.6379 19.6948 36.9175 20.1226 37.3539 20.214C37.7902 20.3053 38.218 20.0257 38.3094 19.5893Z" fill="#C8C8C8"/>
<path d="M41.2962 20.6872C40.9103 20.4644 40.4167 20.5966 40.1939 20.9826C39.971 21.3686 40.1033 21.8621 40.4892 22.085C40.8752 22.3078 41.3688 22.1756 41.5916 21.7896C41.8144 21.4036 41.6822 20.9101 41.2962 20.6872Z" fill="#C8C8C8"/>
<path d="M48.5552 11.871C48.9412 12.0938 49.4347 11.9616 49.6576 11.5756C49.8804 11.1896 49.7482 10.6961 49.3622 10.4732C48.9762 10.2504 48.4827 10.3826 48.2598 10.7686C48.0369 11.1546 48.1692 11.6481 48.5552 11.871Z" fill="#C8C8C8"/>
<path d="M5.53826 10.4271C5.15229 10.6499 5.02005 11.1435 5.2429 11.5294C5.46574 11.9154 5.95931 12.0477 6.34528 11.8248C6.73125 11.602 6.86349 11.1084 6.64065 10.7224C6.4178 10.3365 5.92423 10.2042 5.53826 10.4271Z" fill="#C8C8C8"/>
<path d="M8.90459 8.48345C8.51863 8.70629 8.38638 9.19986 8.60923 9.58583C8.83207 9.9718 9.32564 10.104 9.71161 9.8812C10.0976 9.65836 10.2298 9.16479 10.007 8.77882C9.78424 8.39285 9.29067 8.26061 8.90459 8.48345Z" fill="#C8C8C8"/>
<path d="M12.9625 7.99253C13.3774 7.8303 13.5823 7.3624 13.4201 6.94745C13.2578 6.5325 12.7899 6.32763 12.375 6.48987C11.96 6.6521 11.7552 7.12001 11.9174 7.53496C12.0796 7.9499 12.5475 8.15477 12.9625 7.99253Z" fill="#C8C8C8"/>
<path d="M14.8197 20.8712C14.5968 20.4853 14.1033 20.353 13.7173 20.5759C13.3313 20.7987 13.1991 21.2923 13.4219 21.6782C13.6448 22.0642 14.1384 22.1965 14.5243 21.9736C14.9104 21.7508 15.0426 21.2572 14.8197 20.8712Z" fill="#C8C8C8"/>
<path d="M17.8908 20.03C18.2767 19.8072 18.409 19.3136 18.1861 18.9276C17.9633 18.5417 17.4697 18.4094 17.0838 18.6323C16.6978 18.8551 16.5656 19.3487 16.7884 19.7346C17.0112 20.1206 17.5048 20.2528 17.8908 20.03Z" fill="#C8C8C8"/>
<path d="M21.2571 18.0864C21.6431 17.8635 21.7753 17.37 21.5525 16.984C21.3296 16.598 20.8361 16.4658 20.4501 16.6886C20.0641 16.9115 19.9319 17.4051 20.1547 17.791C20.3776 18.177 20.8711 18.3092 21.2571 18.0864Z" fill="#C8C8C8"/>
<path d="M15.6374 4.59632C15.2514 4.81916 15.1192 5.31273 15.342 5.6987C15.5649 6.08467 16.0584 6.21691 16.4444 5.99407C16.8304 5.77123 16.9626 5.27765 16.7398 4.89169C16.517 4.50572 16.0235 4.37348 15.6374 4.59632Z" fill="#C8C8C8"/>
</g>
<defs>
<clipPath id="clip0">
<rect width="55" height="55" fill="white"/>
</clipPath>
</defs>
</svg>
