<svg width="55" height="55" viewBox="0 0 55 55" fill="none" xmlns="http://www.w3.org/2000/svg">
<path d="M51.3272 24.1205C50.7679 20.0966 49.1881 16.2828 46.7382 13.0421C47.1934 12.3803 47.4024 11.58 47.3291 10.7801C47.2557 9.98026 46.9046 9.23133 46.3366 8.66337C45.7687 8.0954 45.0197 7.74426 44.2199 7.67091C43.42 7.59756 42.6197 7.80663 41.9579 8.26182C38.7172 5.81188 34.9034 4.23208 30.8795 3.67275C30.7339 2.88273 30.3161 2.16868 29.6987 1.6547C29.0813 1.14071 28.3033 0.859268 27.5 0.859268C26.6967 0.859268 25.9187 1.14071 25.3013 1.6547C24.6839 2.16868 24.2661 2.88273 24.1205 3.67275C20.0966 4.23208 16.2828 5.81188 13.0421 8.26182C12.3803 7.80663 11.58 7.59756 10.7801 7.67091C9.98027 7.74426 9.23135 8.0954 8.66338 8.66337C8.09542 9.23133 7.74428 9.98026 7.67093 10.7801C7.59757 11.58 7.80664 12.3803 8.26183 13.0421C5.8119 16.2828 4.23209 20.0966 3.67277 24.1205C2.88274 24.2661 2.1687 24.6839 1.65471 25.3013C1.14073 25.9187 0.859283 26.6967 0.859283 27.5C0.859283 28.3033 1.14073 29.0813 1.65471 29.6987C2.1687 30.3161 2.88274 30.7339 3.67277 30.8795C4.23209 34.9034 5.8119 38.7172 8.26183 41.9579C7.80664 42.6197 7.59757 43.42 7.67093 44.2199C7.74428 45.0197 8.09542 45.7687 8.66338 46.3366C9.23135 46.9046 9.98027 47.2557 10.7801 47.3291C11.58 47.4024 12.3803 47.1934 13.0421 46.7382C16.2828 49.1881 20.0966 50.7679 24.1205 51.3272C24.2661 52.1173 24.6839 52.8313 25.3013 53.3453C25.9187 53.8593 26.6967 54.1407 27.5 54.1407C28.3033 54.1407 29.0813 53.8593 29.6987 53.3453C30.3161 52.8313 30.7339 52.1173 30.8795 51.3272C34.9034 50.7679 38.7172 49.1881 41.9579 46.7382C42.6197 47.1934 43.42 47.4024 44.2199 47.3291C45.0197 47.2557 45.7687 46.9046 46.3366 46.3366C46.9046 45.7687 47.2557 45.0197 47.3291 44.2199C47.4024 43.42 47.1934 42.6197 46.7382 41.9579C49.1881 38.7172 50.7679 34.9034 51.3272 30.8795C52.1173 30.7339 52.8313 30.3161 53.3453 29.6987C53.8593 29.0813 54.1407 28.3033 54.1407 27.5C54.1407 26.6967 53.8593 25.9187 53.3453 25.3013C52.8313 24.6839 52.1173 24.2661 51.3272 24.1205ZM3.48585 29.0146C3.2116 28.868 2.98231 28.6497 2.82245 28.3829C2.66259 28.1161 2.57815 27.811 2.57815 27.5C2.57815 27.189 2.66259 26.8838 2.82245 26.6171C2.98231 26.3503 3.2116 26.132 3.48585 25.9853C3.4547 26.4881 3.43751 26.9919 3.43751 27.5C3.43751 28.0081 3.4547 28.5119 3.48585 29.0146ZM45.1226 9.87637C45.3422 10.097 45.4982 10.3729 45.5738 10.6749C45.6495 10.9769 45.642 11.2938 45.5522 11.5919C45.2192 11.2138 44.8733 10.845 44.5146 10.4854C44.1558 10.1259 43.7873 9.7804 43.4092 9.44883C43.7068 9.35883 44.0232 9.35105 44.3248 9.42633C44.6265 9.5016 44.9021 9.65711 45.1226 9.87637ZM27.5 2.57812C27.8109 2.57851 28.1159 2.66311 28.3826 2.82293C28.6493 2.98276 28.8677 3.21184 29.0147 3.48584C28.5119 3.45469 28.0081 3.4375 27.5 3.4375C26.9919 3.4375 26.4881 3.45469 25.9854 3.48584C26.1323 3.21184 26.3507 2.98276 26.6174 2.82293C26.8841 2.66311 27.1891 2.57851 27.5 2.57812ZM9.87638 9.87744C10.0969 9.65802 10.3727 9.50234 10.6745 9.42689C10.9764 9.35143 11.293 9.35901 11.5908 9.44883C11.2138 9.78183 10.8453 10.1274 10.4855 10.4854C10.1256 10.8435 9.78006 11.212 9.44884 11.5908C9.35884 11.2932 9.35107 10.9768 9.42634 10.6752C9.50161 10.3735 9.65712 10.0979 9.87638 9.87744ZM9.87745 45.1236C9.65777 44.903 9.50185 44.6271 9.4262 44.3251C9.35056 44.0231 9.35801 43.7062 9.44777 43.4081C9.78077 43.7862 10.1267 44.155 10.4855 44.5145C10.8443 44.874 11.2127 45.2196 11.5908 45.5512C11.2932 45.6412 10.9768 45.6489 10.6752 45.5737C10.3735 45.4984 10.0979 45.3429 9.87745 45.1236ZM27.5 52.4219C27.1891 52.4215 26.8841 52.3369 26.6174 52.1771C26.3507 52.0172 26.1323 51.7881 25.9854 51.5141C26.4881 51.5453 26.9919 51.5625 27.5 51.5625C28.0081 51.5625 28.5119 51.5453 29.0147 51.5141C28.8677 51.7881 28.6493 52.0172 28.3826 52.1771C28.1159 52.3369 27.8109 52.4215 27.5 52.4219ZM45.1236 45.1225C44.903 45.3422 44.6271 45.4982 44.3251 45.5738C44.0231 45.6494 43.7062 45.642 43.4081 45.5522C43.7862 45.2192 44.1551 44.8733 44.5146 44.5145C44.8741 44.1558 45.2196 43.7873 45.5512 43.4092C45.6412 43.7068 45.6489 44.0232 45.5737 44.3248C45.4984 44.6265 45.3429 44.9021 45.1236 45.1225ZM27.5 49.8437C15.1798 49.8437 5.15626 39.8202 5.15626 27.5C5.15626 15.1798 15.1798 5.15625 27.5 5.15625C39.8202 5.15625 49.8438 15.1798 49.8438 27.5C49.8438 39.8202 39.8202 49.8437 27.5 49.8437ZM51.5142 29.0146C51.5453 28.5119 51.5625 28.0081 51.5625 27.5C51.5625 26.9919 51.5453 26.4881 51.5142 25.9853C51.7884 26.132 52.0177 26.3503 52.1776 26.6171C52.3374 26.8838 52.4219 27.189 52.4219 27.5C52.4219 27.811 52.3374 28.1161 52.1776 28.3829C52.0177 28.6497 51.7884 28.868 51.5142 29.0146Z" fill="#CBCBCB"/>
<path d="M27.5 6.875C16.1274 6.875 6.875 16.1274 6.875 27.5C6.875 38.8726 16.1274 48.125 27.5 48.125C38.8726 48.125 48.125 38.8726 48.125 27.5C48.125 16.1274 38.8726 6.875 27.5 6.875ZM27.5 46.4062C17.075 46.4062 8.59375 37.925 8.59375 27.5C8.59375 17.075 17.075 8.59375 27.5 8.59375C37.925 8.59375 46.4062 17.075 46.4062 27.5C46.4062 37.925 37.925 46.4062 27.5 46.4062Z" fill="#CBCBCB"/>
<path d="M27.5 18.0469C25.6304 18.0469 23.8027 18.6013 22.2481 19.64C20.6936 20.6787 19.4819 22.1551 18.7665 23.8824C18.051 25.6098 17.8638 27.5105 18.2285 29.3442C18.5933 31.1779 19.4936 32.8623 20.8156 34.1844C22.1377 35.5064 23.8221 36.4067 25.6558 36.7715C27.4895 37.1362 29.3902 36.949 31.1176 36.2336C32.8449 35.5181 34.3213 34.3064 35.36 32.7519C36.3987 31.1973 36.9531 29.3697 36.9531 27.5C36.9503 24.9937 35.9534 22.591 34.1812 20.8188C32.409 19.0466 30.0063 18.0497 27.5 18.0469ZM27.5 35.2344C25.9703 35.2344 24.4749 34.7808 23.203 33.9309C21.9311 33.081 20.9398 31.8731 20.3544 30.4598C19.769 29.0465 19.6158 27.4914 19.9142 25.9911C20.2127 24.4908 20.9493 23.1126 22.031 22.031C23.1126 20.9493 24.4908 20.2127 25.9911 19.9142C27.4914 19.6158 29.0465 19.769 30.4598 20.3544C31.8731 20.9398 33.081 21.9311 33.9309 23.203C34.7808 24.4749 35.2344 25.9703 35.2344 27.5C35.2321 29.5506 34.4165 31.5165 32.9665 32.9665C31.5165 34.4165 29.5506 35.2321 27.5 35.2344Z" fill="#CBCBCB"/>
</svg>
