<svg width="55" height="55" viewBox="0 0 55 55" fill="none" xmlns="http://www.w3.org/2000/svg">
<g clip-path="url(#clip0)">
<path d="M46.3465 12.8161C45.9218 12.6578 45.485 12.506 45.0384 12.3597L54.5348 2.74362C55.1601 2.11037 55.1538 1.09019 54.5205 0.464883C53.8872 -0.160527 52.867 -0.153867 52.2418 0.47917L41.4828 11.3738C37.3038 10.4028 32.4987 9.88288 27.4997 9.88288C22.5007 9.88288 17.6957 10.4028 13.5166 11.3738L2.75757 0.47917C2.13237 -0.153974 1.11219 -0.16042 0.478828 0.464883C-0.154424 1.09019 -0.160762 2.11037 0.464541 2.74362L9.96096 12.3597C9.51441 12.506 9.07752 12.6578 8.65288 12.8161C3.07285 14.8967 -0.000273495 17.8607 -0.000273495 21.1622V43.7208C-0.000273495 47.8808 4.7308 50.6047 8.65299 52.0668C14.3918 54.2067 21.3954 55.0001 27.4997 55.0001C33.901 55.0001 41.4949 54.1107 47.3779 51.6602C47.7871 51.5457 54.9997 48.7323 54.9997 43.7208V21.1622C54.9997 17.8607 51.9267 14.8967 46.3465 12.8161ZM6.44504 47.5004C4.38318 46.2929 3.22238 44.9627 3.22238 43.7208V34.2164C4.2271 34.7128 5.30454 35.1724 6.44504 35.595V47.5004ZM16.113 50.7659C13.8004 50.3266 11.6641 49.7502 9.77877 49.0472C9.74128 49.0333 9.70497 49.019 9.6677 49.005V36.6418C11.6782 37.2103 13.8377 37.6763 16.113 38.034V50.7659ZM25.8884 51.758C23.6302 51.7052 21.4308 51.5416 19.3357 51.2745V38.4596C21.4468 38.6866 23.6386 38.846 25.8884 38.8908V51.758ZM35.6638 51.2745C33.5686 51.5417 31.3693 51.7052 29.1111 51.758V38.8908C31.3609 38.846 33.5526 38.6866 35.6638 38.4596V51.2745ZM45.3318 49.0051C45.2945 49.0191 45.2582 49.0334 45.2207 49.0474C43.3353 49.7503 41.199 50.3266 38.8865 50.766V38.0341C41.1618 37.6763 43.3213 37.2104 45.3318 36.6419V49.0051ZM51.7771 43.7208C51.7771 44.9627 50.6163 46.2929 48.5544 47.5005V35.5951C49.6949 35.1725 50.7724 34.7128 51.7771 34.2165V43.7208ZM51.7771 30.5602C46.2581 33.7657 37.282 35.6856 27.4997 35.6856C17.7175 35.6856 8.7415 33.7657 3.22238 30.5602V26.6409C8.99384 31.0922 19.9998 32.463 27.4997 32.463C35.1431 32.463 46.0722 31.0408 51.7771 26.6409V30.5602ZM27.4997 29.2403C13.0098 29.2403 3.22238 24.7697 3.22238 21.1622C3.22238 19.3576 5.67343 17.3664 9.77877 15.8357C10.6421 15.5137 11.5585 15.2186 12.5197 14.9507L16.589 19.0712C16.2841 19.7044 16.113 20.4137 16.113 21.1622C16.113 23.8276 18.2815 25.9962 20.947 25.9962C23.6125 25.9962 25.781 23.8276 25.781 21.1622C25.781 18.4967 23.6125 16.3282 20.947 16.3282C20.2048 16.3282 19.5013 16.4967 18.8724 16.7969L16.2076 14.0987C19.6627 13.4492 23.508 13.1055 27.4997 13.1055C31.4914 13.1055 35.3368 13.4492 38.7918 14.0987L36.1271 16.7969C35.4981 16.4967 34.7946 16.3282 34.0525 16.3282C31.387 16.3282 29.2185 18.4967 29.2185 21.1622C29.2185 23.8276 31.387 25.9962 34.0525 25.9962C36.7179 25.9962 38.8865 23.8276 38.8865 21.1622C38.8865 20.4137 38.7153 19.7044 38.4104 19.0712L42.4796 14.9507C43.4409 15.2186 44.3572 15.5138 45.2206 15.8357C49.3261 17.3664 51.7771 19.3576 51.7771 21.1622C51.7771 24.7703 41.9888 29.2403 27.4997 29.2403ZM19.3357 21.1622C19.3357 20.2737 20.0585 19.5509 20.947 19.5509C21.8355 19.5509 22.5583 20.2737 22.5583 21.1622C22.5583 22.0507 21.8355 22.7735 20.947 22.7735C20.0585 22.7735 19.3357 22.0507 19.3357 21.1622ZM35.6638 21.1622C35.6638 22.0507 34.941 22.7735 34.0525 22.7735C33.164 22.7735 32.4411 22.0507 32.4411 21.1622C32.4411 20.2737 33.164 19.5509 34.0525 19.5509C34.941 19.5509 35.6638 20.2737 35.6638 21.1622Z" fill="#C8C8C8"/>
</g>
<defs>
<clipPath id="clip0">
<rect width="55" height="55" fill="white"/>
</clipPath>
</defs>
</svg>
